<svg xmlns="http://www.w3.org/2000/svg" width="132" height="16" fill="none"><path fill="#FFF9ED" d="M1.805.096h5.124c.653 0 1.22.103 1.702.309.493.206.9.499 1.22.877.264.298.465.647.602 1.049.15.39.224.82.224 1.29 0 1.134-.327 2.022-.98 2.664-.642.63-1.64.946-2.992.946H3.352v5.158H1.805V.096Zm1.547 5.88h3.233c.87 0 1.513-.2 1.925-.602.425-.413.637-.974.637-1.685 0-.745-.218-1.307-.654-1.685-.424-.378-1.031-.567-1.822-.567H3.352v4.539Zm12.154 6.654c-.665 0-1.26-.12-1.788-.361a4.265 4.265 0 0 1-1.358-1.015 4.728 4.728 0 0 1-.86-1.478 5.625 5.625 0 0 1-.292-1.823c0-.642.097-1.244.292-1.805a4.687 4.687 0 0 1 .86-1.496 4.054 4.054 0 0 1 1.358-.997c.527-.253 1.123-.379 1.788-.379s1.261.126 1.788.379c.528.24.975.573 1.342.997.378.424.664.923.86 1.496.194.561.292 1.163.292 1.805 0 .642-.098 1.25-.293 1.823a4.325 4.325 0 0 1-.86 1.478 4.074 4.074 0 0 1-1.34 1.015c-.528.24-1.124.36-1.789.36Zm0-1.17c.47 0 .883-.091 1.238-.275.356-.183.654-.43.894-.739.241-.32.419-.693.533-1.118.126-.424.19-.882.19-1.375s-.064-.951-.19-1.375a3.258 3.258 0 0 0-.533-1.118 2.587 2.587 0 0 0-.894-.757c-.355-.183-.768-.275-1.238-.275s-.888.092-1.255.275a2.588 2.588 0 0 0-.894.757c-.24.32-.424.693-.55 1.118a5.258 5.258 0 0 0-.172 1.375c0 .493.057.951.172 1.375.126.425.31.797.55 1.118.24.31.539.556.894.74a2.77 2.77 0 0 0 1.255.274Zm4.626-7.96h1.495l1.565 5.485c.057.194.109.4.155.619.046.217.097.424.155.619.046.217.103.44.172.67h.034c.057-.23.109-.453.155-.67.046-.195.091-.396.137-.602.046-.218.098-.419.155-.602l1.496-5.52h1.461l1.445 5.52c.045.183.091.384.137.602.057.206.109.407.155.602.046.217.091.44.137.67h.035c.057-.23.114-.453.172-.67.057-.195.109-.402.154-.62.058-.217.115-.424.172-.618L31.17 3.5h1.444l-2.905 8.889H28.28l-1.478-5.382a7.176 7.176 0 0 1-.155-.584 26.927 26.927 0 0 0-.137-.62l-.138-.653h-.034a13.55 13.55 0 0 0-.155.654c-.046.195-.092.401-.138.619a7.217 7.217 0 0 1-.154.584l-1.496 5.382H22.95l-2.82-8.89Zm17.135 9.13c-.676 0-1.284-.12-1.823-.361a4.073 4.073 0 0 1-1.34-1.015 4.477 4.477 0 0 1-.843-1.478 5.622 5.622 0 0 1-.292-1.823c0-.642.097-1.244.292-1.805a4.687 4.687 0 0 1 .86-1.496 4.104 4.104 0 0 1 1.34-.997 3.862 3.862 0 0 1 1.72-.379c.665 0 1.25.126 1.754.379.516.24.945.584 1.29 1.031.343.436.601.963.773 1.582a6.94 6.94 0 0 1 .275 2.012h-6.877c.023.447.103.865.24 1.255.138.39.327.728.568 1.014.24.287.533.51.877.67.343.161.739.242 1.186.242.653 0 1.186-.15 1.599-.447.413-.31.7-.768.86-1.376h1.358c-.206.963-.642 1.702-1.307 2.218-.665.516-1.501.774-2.51.774Zm-.086-8.253c-.413 0-.78.074-1.1.223a2.26 2.26 0 0 0-.826.602 3.387 3.387 0 0 0-.55.911c-.137.344-.23.717-.275 1.118h5.347c-.046-.894-.292-1.593-.74-2.098-.435-.504-1.054-.756-1.856-.756Zm6.847.602h.034a3.657 3.657 0 0 1 1.066-1.118 2.76 2.76 0 0 1 1.582-.464c.126 0 .229.011.31.034.08.012.165.034.257.069V4.84h-.051a1.528 1.528 0 0 0-.293-.069 2.427 2.427 0 0 0-.326-.017 2.618 2.618 0 0 0-1.805.722c-.241.23-.43.516-.568.86a2.897 2.897 0 0 0-.206 1.117v4.935h-1.393v-8.89h1.393v1.48Zm7.964 7.65c-.676 0-1.283-.12-1.822-.36a4.073 4.073 0 0 1-1.341-1.015 4.479 4.479 0 0 1-.843-1.478 5.622 5.622 0 0 1-.292-1.823c0-.642.097-1.244.292-1.805a4.687 4.687 0 0 1 .86-1.496 4.105 4.105 0 0 1 1.341-.997 3.863 3.863 0 0 1 1.72-.379c.664 0 1.249.126 1.753.379.516.24.946.584 1.29 1.031.343.436.601.963.773 1.582A6.94 6.94 0 0 1 56 8.28H49.12c.023.447.103.865.24 1.255.138.39.327.728.568 1.014.24.287.533.51.877.67.344.161.74.242 1.186.242.654 0 1.187-.15 1.6-.447.412-.31.699-.768.86-1.376h1.357c-.206.963-.642 1.702-1.306 2.218-.665.516-1.502.774-2.51.774Zm-.086-8.252c-.412 0-.779.074-1.1.223a2.26 2.26 0 0 0-.825.602 3.382 3.382 0 0 0-.55.911c-.138.344-.23.717-.276 1.118h5.348c-.046-.894-.293-1.593-.74-2.098-.435-.504-1.054-.756-1.857-.756Zm8.893 8.27a4.04 4.04 0 0 1-1.65-.327 3.524 3.524 0 0 1-1.239-.928 4.53 4.53 0 0 1-.773-1.479 6.47 6.47 0 0 1-.275-1.943c0-.733.097-1.392.292-1.977.206-.585.481-1.072.825-1.462a3.545 3.545 0 0 1 1.238-.91 3.71 3.71 0 0 1 1.548-.327c.63 0 1.18.137 1.65.412.47.275.848.625 1.135 1.049h.034V.095h1.393V12.39h-1.393v-1.083h-.034a3.502 3.502 0 0 1-1.152.997c-.436.23-.969.344-1.599.344Zm.052-1.17c.492 0 .917-.085 1.272-.257.355-.184.648-.43.877-.74.229-.309.395-.676.498-1.1.115-.424.172-.888.172-1.393 0-.515-.063-.985-.189-1.41a3.068 3.068 0 0 0-.533-1.117c-.24-.31-.538-.55-.894-.722a2.769 2.769 0 0 0-1.22-.258c-.425 0-.797.092-1.118.275a2.31 2.31 0 0 0-.791.74c-.206.309-.367.681-.481 1.117a5.808 5.808 0 0 0-.155 1.375c0 .505.051.969.154 1.393.115.424.276.791.482 1.1.218.31.487.556.808.74.32.172.694.258 1.118.258Zm12.98 1.17c-.608 0-1.136-.109-1.582-.327-.448-.23-.855-.596-1.221-1.1h-.035v1.169h-1.392V.096h1.392v4.676h.035a3.8 3.8 0 0 1 1.186-1.083c.459-.264 1.014-.395 1.668-.395.561 0 1.072.108 1.53.326.47.207.871.51 1.204.911.332.39.59.877.773 1.462.184.585.276 1.244.276 1.977 0 .71-.087 1.358-.259 1.943a4.293 4.293 0 0 1-.756 1.479c-.332.4-.74.71-1.22.928-.47.218-1.004.327-1.6.327Zm-.104-1.17c.424 0 .791-.085 1.1-.257.322-.184.585-.43.791-.74.207-.309.362-.676.465-1.1.103-.424.154-.888.154-1.393 0-.492-.051-.951-.154-1.375a3.417 3.417 0 0 0-.465-1.118 2.165 2.165 0 0 0-.773-.739c-.31-.183-.677-.275-1.1-.275-.482 0-.906.092-1.273.275a2.432 2.432 0 0 0-.877.756c-.23.321-.401.694-.516 1.118a5.189 5.189 0 0 0-.172 1.358c0 .505.058.969.172 1.393.115.424.287.791.516 1.1.24.31.539.556.894.74.355.172.768.258 1.238.258Zm6.294 3.852a5.98 5.98 0 0 1-.688-.034 2.214 2.214 0 0 1-.567-.155v-1.238h.068c.092.057.212.103.361.138.16.034.356.051.585.051.298 0 .55-.074.757-.223.206-.138.395-.425.567-.86l.344-.877L77.975 3.5h1.513l2.097 5.536c.069.195.138.396.207.602.068.195.131.378.189.55.069.207.137.401.206.585h.034a32.323 32.323 0 0 1 .379-1.135c.069-.206.137-.407.206-.602L84.835 3.5h1.479l-3.8 9.611a6.768 6.768 0 0 1-.55 1.118c-.172.286-.361.51-.568.67a1.509 1.509 0 0 1-.636.344 2.912 2.912 0 0 1-.74.086ZM116.017 2.944h-1.376a.54.54 0 0 0-.495.328l-2.398 5.445-2.397-5.445a.54.54 0 0 0-.495-.329h-1.381a.536.536 0 0 0-.459.257.56.56 0 0 0-.037.533l3.761 8.346a.548.548 0 0 0 .495.324h1.021c.105 0 .207-.03.294-.088a.557.557 0 0 0 .202-.236l3.761-8.346a.573.573 0 0 0-.037-.533.548.548 0 0 0-.459-.256ZM102.536 2.726c-2.54 0-4.548 2.126-4.548 4.844 0 2.738 2.025 5.037 4.726 5.037 1.031 0 2.275-.345 3.43-1.3.231-.191.266-.44.07-.709l-.782-.995c-.195-.25-.408-.268-.657-.115-.533.402-1.226.766-2.026.766-.959 0-1.954-.578-2.399-1.8h6.255c.283 0 .462-.173.444-.498-.176-3.22-2.043-5.23-4.513-5.23Zm-2.168 3.81a2.127 2.127 0 0 1 2.115-1.742c.492-.004.969.169 1.349.487.38.318.638.762.73 1.255h-4.194ZM121.106 2.726c-2.541 0-4.549 2.126-4.549 4.844 0 2.738 2.026 5.037 4.726 5.037 1.032 0 2.275-.345 3.43-1.3.231-.191.267-.44.071-.709l-.782-.995c-.196-.25-.409-.268-.658-.115-.533.402-1.226.766-2.025.766-.96 0-1.955-.578-2.399-1.8h6.255c.283 0 .462-.173.445-.498-.178-3.22-2.044-5.23-4.514-5.23Zm-2.166 3.81a2.126 2.126 0 0 1 2.115-1.742c.491-.004.969.169 1.348.487.38.318.639.762.731 1.255h-4.194ZM96.681.393c-2.401.344-4.266 2.678-4.28 5.501v5.952c0 .148.057.29.16.394a.54.54 0 0 0 .385.163h1.393a.536.536 0 0 0 .386-.163.556.556 0 0 0 .16-.394V8.43h1.501a.54.54 0 0 0 .386-.163.563.563 0 0 0 .16-.393V6.84a.563.563 0 0 0-.16-.394.54.54 0 0 0-.386-.163h-1.501v-.36c0-1.45.85-2.66 1.974-2.913a.547.547 0 0 0 .312-.193.567.567 0 0 0 .124-.35V.946a.566.566 0 0 0-.184-.419.542.542 0 0 0-.43-.135ZM130.884 2.467c-2.402.344-4.266 2.677-4.281 5.501v3.878c0 .148.058.29.16.394a.541.541 0 0 0 .386.163h1.394a.539.539 0 0 0 .385-.163.56.56 0 0 0 .16-.394v-3.85c0-1.449.85-2.658 1.973-2.911a.55.55 0 0 0 .436-.545V3.02a.549.549 0 0 0-.613-.553Z"/></svg>